0.11m3min_grf.mot
version=1
nRows=25
nColumns 19
inDegrees=yes
endheader
time	1_ground_force_vx	1_ground_force_vy	1_ground_force_vz	1_ground_force_px	1_ground_force_py	1_ground_force_pz	1_ground_torque_x	1_ground_torque_y	1_ground_torque_z	2_ground_force_vx	2_ground_force_vy	2_ground_force_vz	2_ground_force_px	2_ground_force_py	2_ground_force_pz	2_ground_torque_x	2_ground_torque_y	2_ground_torque_z
            0.005000	            0.132133	         1246.923482	         -126.768340	           -0.257353	            0.006097	           -0.377019	            0.000431	            4.070270	           -0.413804	          -10.645556	         1200.498380	          142.772873	           -0.260754	            0.005581	           -0.708671	            0.023566	           -2.657517	           -0.316053
            0.005500	           -0.047276	         1242.050996	         -125.550641	           -0.257219	            0.006097	           -0.377002	           -0.000152	            4.000583	           -0.404392	          -10.820301	         1196.820078	          141.305049	           -0.260543	            0.005582	           -0.708725	            0.024206	           -2.677448	           -0.316118
            0.006000	            0.002385	         1236.097366	         -124.475721	           -0.257007	            0.006098	           -0.377141	            0.000008	            3.906192	           -0.393356	          -10.941488	         1191.299670	          139.971409	           -0.260362	            0.005582	           -0.708493	            0.024283	           -2.643920	           -0.310647
            0.006500	           -0.589189	         1231.404432	         -123.072786	           -0.256748	            0.006097	           -0.377056	           -0.001811	            3.785021	           -0.378294	          -11.112286	         1186.516736	          138.405771	           -0.260128	            0.005583	           -0.708463	            0.024724	           -2.639904	           -0.307942
            0.007000	           -0.493245	         1224.909455	         -121.862743	           -0.256533	            0.006098	           -0.377200	           -0.001525	            3.786053	           -0.376664	          -11.051493	         1182.471211	          136.842691	           -0.259948	            0.005583	           -0.708352	            0.023741	           -2.540238	           -0.293972
            0.007500	           -0.764128	         1219.495987	         -120.601283	           -0.256353	            0.006098	           -0.377160	           -0.002382	            3.801706	           -0.375967	          -11.079124	         1176.952313	          135.180492	           -0.259841	            0.005583	           -0.708131	            0.023728	           -2.520693	           -0.289518
            0.008000	           -0.759057	         1213.540186	         -119.021831	           -0.256105	            0.006099	           -0.377301	           -0.002318	            3.706101	           -0.363488	          -11.390971	         1172.351613	          133.991026	           -0.259726	            0.005583	           -0.708102	            0.024457	           -2.517084	           -0.287684
            0.008500	           -0.940144	         1209.752033	         -118.395632	           -0.255980	            0.006098	           -0.377165	           -0.002883	            3.709254	           -0.363016	          -11.374952	         1167.752766	          132.613677	           -0.259559	            0.005583	           -0.708009	            0.024768	           -2.542662	           -0.288753
            0.009000	           -1.255777	         1202.714637	         -116.820020	           -0.255766	            0.006099	           -0.377309	           -0.003699	            3.542585	           -0.344092	          -11.453401	         1163.338742	          131.002392	           -0.259278	            0.005584	           -0.707984	            0.024880	           -2.527069	           -0.284571
            0.009500	           -1.205792	         1197.481406	         -115.558585	           -0.255554	            0.006099	           -0.377343	           -0.003518	            3.493789	           -0.337155	          -11.248009	         1158.188256	          129.576072	           -0.259213	            0.005584	           -0.707863	            0.025324	           -2.607557	           -0.291729
            0.010000	           -1.431173	         1192.068537	         -114.434810	           -0.255406	            0.006099	           -0.377291	           -0.004054	            3.376389	           -0.324123	          -11.274769	         1152.483604	          128.382512	           -0.258963	            0.005584	           -0.707680	            0.024733	           -2.528196	           -0.281632
            0.010500	           -1.473003	         1186.294915	         -113.267170	           -0.255137	            0.006099	           -0.377353	           -0.004171	            3.358843	           -0.320702	          -11.211941	         1147.885261	          126.911302	           -0.258799	            0.005585	           -0.707633	            0.023989	           -2.455976	           -0.271535
            0.011000	           -1.284609	         1179.978998	         -111.735585	           -0.254935	            0.006100	           -0.377489	           -0.003608	            3.314240	           -0.313835	          -11.335327	         1142.919010	          125.110353	           -0.258673	            0.005585	           -0.707562	            0.024025	           -2.422395	           -0.265169
            0.011500	           -1.326292	         1174.024761	         -110.522866	           -0.254885	            0.006100	           -0.377570	           -0.003784	            3.349949	           -0.315365	          -11.128586	         1137.400197	          123.729640	           -0.258518	            0.005585	           -0.707280	            0.024027	           -2.455694	           -0.267137
            0.012000	           -1.551167	         1167.709944	         -109.265386	           -0.254679	            0.006100	           -0.377639	           -0.004357	            3.279807	           -0.306899	          -11.062915	         1132.063785	          122.678147	           -0.258289	            0.005585	           -0.707298	            0.024450	           -2.501961	           -0.271130
            0.012500	           -1.364385	         1162.117767	         -108.326831	           -0.254398	            0.006100	           -0.377645	           -0.003696	            3.148239	           -0.293463	          -11.090525	         1126.544720	          121.062899	           -0.258071	            0.005586	           -0.707162	            0.024183	           -2.456477	           -0.263983
            0.013000	           -1.222013	         1156.162386	         -106.839440	           -0.254269	            0.006101	           -0.377733	           -0.003218	            3.044674	           -0.281354	          -11.166959	         1121.578045	          119.496579	           -0.257941	            0.005586	           -0.707120	            0.023883	           -2.398783	           -0.255574
            0.013500	           -1.172124	         1150.208607	         -105.672800	           -0.254154	            0.006101	           -0.377720	           -0.003032	            2.975623	           -0.273379	          -10.725241	         1115.875252	          118.255900	           -0.257872	            0.005586	           -0.706979	            0.022910	           -2.383651	           -0.252610
            0.014000	           -1.075595	         1144.253217	         -104.185294	           -0.253934	            0.006101	           -0.377793	           -0.002773	            2.949858	           -0.268587	          -10.943909	         1111.457798	          117.395524	           -0.257597	            0.005587	           -0.707050	            0.022198	           -2.254377	           -0.238114
            0.014500	           -0.888306	         1137.759092	         -103.113034	           -0.253712	            0.006102	           -0.377908	           -0.002335	            2.990386	           -0.271013	          -10.825633	         1104.466191	          115.821882	           -0.257485	            0.005586	           -0.706674	            0.022144	           -2.259208	           -0.236916
            0.015000	           -0.517519	         1133.066689	         -101.850076	           -0.253591	            0.006101	           -0.377788	           -0.001335	            2.922418	           -0.262693	          -10.673113	         1100.973076	          114.307638	           -0.257350	            0.005587	           -0.706834	            0.021390	           -2.206426	           -0.229080
            0.015500	           -0.238481	         1127.473547	         -100.682458	           -0.253332	            0.006101	           -0.377735	           -0.000616	            2.914049	           -0.260222	          -10.273031	         1093.797826	          112.827090	           -0.257230	            0.005586	           -0.706499	            0.021749	           -2.315703	           -0.238869
            0.016000	           -0.050785	         1120.617996	          -99.474188	           -0.253208	            0.006102	           -0.377936	           -0.000127	            2.797092	           -0.248290	          -10.538050	         1089.197462	          111.590652	           -0.256896	            0.005588	           -0.706548	            0.021510	           -2.223287	           -0.227781
            0.016500	            0.137382	         1114.302472	          -98.034308	           -0.252989	            0.006103	           -0.378071	            0.000329	            2.666298	           -0.234576	          -10.186003	         1082.389274	          110.439927	           -0.256893	            0.005587	           -0.706235	            0.021121	           -2.244400	           -0.229004
            0.017000	            0.094950	         1108.710251	          -97.095170	           -0.252915	            0.006102	           -0.377994	            0.000217	            2.532459	           -0.221780	          -10.262998	         1077.605598	          109.108896	           -0.256662	            0.005588	           -0.706331	            0.020548	           -2.157545	           -0.218454
